<?xml version="1.0" encoding="UTF-8"?>
<svg id="Capa_2" data-name="Capa 2" xmlns="http://www.w3.org/2000/svg" viewBox="0 0 1657.37 236.15">
  <defs>
    <style>
      .cls-1 {
        fill: #fff;
      }

      .cls-2 {
        fill: #37ee44;
      }
    </style>
  </defs>
  <g id="Capa_1-2" data-name="Capa 1">
    <g>
      <g>
        <g>
          <path d="m107.18,75.82l.06-.05L45.21,0H0v236.15h53.98V92.77l117.74,143.39h44.87v-22.65L107.18,75.82Z"/>
          <path class="cls-2" d="m216.59,0v30.17c-1.5,13.38-12.87,23.79-26.65,23.79h-27.33v-27.33c0-13.71,10.29-25.02,23.57-26.63h30.41Z"/>
        </g>
        <g>
          <path d="m352.5,83.91c-12.39-6.63-26.29-9.95-41.7-9.95s-30.39,3.47-43.17,10.39c-12.78,6.93-22.73,16.54-29.85,28.83-7.12,12.29-10.68,26.24-10.68,41.85s3.71,29.51,11.12,41.7c7.41,12.19,17.85,21.8,31.31,28.83,13.46,7.02,29.17,10.54,47.12,10.54,14.24,0,26.82-2.2,37.75-6.59,10.92-4.39,20-10.68,27.22-18.88l-24.29-26.34c-5.27,5.08-11.07,8.88-17.41,11.41-6.34,2.54-13.61,3.8-21.8,3.8-9.56,0-17.76-1.71-24.58-5.12-6.83-3.41-12.19-8.34-16.09-14.78-2.15-3.54-3.68-7.45-4.65-11.71h119.07c.19-1.95.39-4.05.59-6.29.19-2.24.29-4.24.29-6,0-16.97-3.61-31.51-10.83-43.61-7.22-12.09-17.02-21.46-29.41-28.09Zm-62.04,29.7c5.95-3.41,12.83-5.12,20.63-5.12s14.63,1.71,20.48,5.12c5.85,3.42,10.44,8.15,13.75,14.19,2.2,4.01,3.61,8.51,4.26,13.46h-77.38c.76-4.9,2.2-9.35,4.34-13.32,3.32-6.15,7.95-10.92,13.9-14.34Z"/>
          <polygon points="568.33 78.71 519.45 78.71 485.51 124.64 452.14 78.71 401.22 78.71 459.45 156.93 398.59 236.15 448.92 236.15 484.42 187.97 518.87 236.15 570.67 236.15 509.63 155.54 568.33 78.71"/>
          <path d="m449.15,73.57c0,.31,0,.86.04,1.63-.03-.53-.04-1.08-.04-1.63Z"/>
          <path d="m654.38,78.87c-21.69,0-40.2,7.7-55.55,23.09-15.34,15.34-23.02,33.83-23.02,55.47s7.67,40.2,23.02,55.55c15.34,15.34,33.86,23.02,55.55,23.02s40.12-7.67,55.47-23.02c15.39-15.34,23.09-33.86,23.09-55.55s-7.7-40.12-23.09-55.47c-15.34-15.39-33.83-23.09-55.47-23.09Zm27.7,106.33c-7.67,7.67-16.91,11.51-27.7,11.51s-20.1-3.84-27.77-11.51c-7.67-7.67-11.51-16.93-11.51-27.77s3.84-20.02,11.51-27.7c7.67-7.72,16.93-11.58,27.77-11.58s20.02,3.86,27.7,11.58c7.72,7.67,11.58,16.91,11.58,27.7s-3.86,20.1-11.58,27.77Z"/>
        </g>
      </g>
      <g>
        <path d="m912.02,150.02v83.69h-42.39v-77.17c0-23.64-10.87-34.51-29.62-34.51-20.38,0-35.05,12.5-35.05,39.4v72.28h-42.39V32.08h42.39v70.65c11.41-11.41,27.72-17.39,46.47-17.39,34.51,0,60.6,20.11,60.6,64.67Z"/>
        <path d="m941.09,160.61c0-44.02,33.97-75.27,80.43-75.27s80.16,31.25,80.16,75.27-33.69,75.27-80.16,75.27-80.43-31.25-80.43-75.27Zm117.66,0c0-25.27-16.03-40.49-37.23-40.49s-37.5,15.22-37.5,40.49,16.3,40.49,37.5,40.49,37.23-15.22,37.23-40.49Z"/>
        <path d="m1277.21,87.52v146.19h-40.21v-17.39c-11.14,12.77-27.45,19.56-45.38,19.56-36.68,0-62.5-20.65-62.5-65.76v-82.61h42.39v76.36c0,24.46,10.87,35.32,29.62,35.32s33.7-12.5,33.7-39.4v-72.28h42.39Z"/>
        <path d="m1302.48,220.12l14.13-30.43c13.04,8.42,32.88,14.13,50.81,14.13,19.56,0,26.9-5.16,26.9-13.31,0-23.91-88.31.54-88.31-57.88,0-27.72,25-47.28,67.66-47.28,20.11,0,42.39,4.62,56.25,12.77l-14.13,30.16c-14.4-8.15-28.8-10.87-42.12-10.87-19.02,0-27.17,5.98-27.17,13.59,0,25,88.31.81,88.31,58.42,0,27.17-25.27,46.47-69.02,46.47-24.73,0-49.73-6.79-63.31-15.76Z"/>
        <path d="m1603.27,172.57h-110.59c4.08,18.21,19.56,29.35,41.85,29.35,15.49,0,26.63-4.62,36.68-14.13l22.55,24.46c-13.59,15.49-33.97,23.64-60.32,23.64-50.54,0-83.42-31.79-83.42-75.27s33.42-75.27,77.99-75.27,76.08,28.8,76.08,75.81c0,3.26-.54,7.88-.82,11.41Zm-111.14-24.73h72.01c-2.99-18.48-16.85-30.43-35.87-30.43s-33.15,11.68-36.14,30.43Z"/>
      </g>
      <circle class="cls-2" cx="1628.71" cy="53.95" r="28.66" transform="translate(103.33 627.39) rotate(-22.5)"/>
      <path class="cls-1" d="m1644.18,53.04h0c-.01-.75-.29-1.51-.9-2.12-4.11-4.12-8.26-8.21-12.33-12.37-1.21-1.24-3.27-1.23-4.47,0-3.25,3.34-6.57,6.61-9.87,9.9-.86.85-1.73,1.69-2.56,2.57-.57.6-.82,1.35-.81,2.08h0s.01.02.01.02c.03,1.07.64,2.1,1.77,2.54.45.18.97.21,1.53.32v.49c0,2.87.02,5.74,0,8.61,0,.59.15,1.12.4,1.59v.03s.02,0,.02,0c.6,1.11,1.77,1.83,3.01,1.79,1.53-.05,3.06,0,4.6-.01.89,0,1.17-.29,1.18-1.2,0-2.29,0-4.58,0-6.87,0-1.02.61-1.63,1.62-1.63.84,0,1.68,0,2.52,0,1.26,0,1.8.54,1.8,1.79,0,2.26,0,4.52,0,6.78,0,.81.33,1.14,1.15,1.14,1.53,0,3.06,0,4.6,0,.29,0,.59,0,.86-.07,1.61-.41,2.57-1.63,2.58-3.3.01-2.87,0-5.74,0-8.61v-.53c.55-.11,1.08-.14,1.55-.32,1.16-.46,1.77-1.52,1.76-2.63h0Zm-18.83,4.54v-.14s.17.03.17.03c-.06.03-.11.07-.17.11Zm7.11.32h0s0,0,0,0c0,0,0,0,0,0Z"/>
    </g>
  </g>
</svg>